<svg xmlns="http://www.w3.org/2000/svg" width="52" height="38" viewBox="0 0 52 38"><defs><clipPath id="ywwpa"><path d="M0 38V0h53v38z"/></clipPath></defs><g><g><g><path fill="#ff9100" d="M0 38V0h53v38z"/></g><g clip-path="url(#ywwpa)"><path fill="#ff9100" d="M31.281 2.259c.274-.849.522-1.702.815-2.546 1.613 4.804 3.217 9.618 4.836 14.417 5.123-.004 10.247 0 15.37-.004v.02c-.146.062-.262.165-.39.262-3.914 2.976-7.824 5.95-11.738 8.921 1.545 4.883 3.095 9.765 4.645 14.642-1.598-1.102-3.188-2.229-4.787-3.34-2.622-1.835-5.245-3.673-7.868-5.502-10.53 0-21.06-.005-31.59.004v-.014c.122-.078.22-.186.322-.283.658-.634 1.316-1.263 1.974-1.893 10.12-.004 20.246 0 30.367 0 .16-.014.273.117.394.196 2.38 1.692 4.758 3.39 7.137 5.077l-3.144-9.565c-.054-.073.034-.117.078-.156 2.642-1.99 5.28-3.985 7.917-5.98-3.413-.004-6.825 0-10.243 0l-3.144-10.14c-1.063 3.375-2.096 6.76-3.15 10.14H15.195a.269.269 0 0 1-.215-.078c-.926-.77-1.862-1.526-2.778-2.302h15.341c1.248-3.96 2.492-7.92 3.74-11.876z"/></g><g clip-path="url(#ywwpa)"><path fill="#ff9100" d="M5.556 18.676c.81.005 1.619.005 2.423 0 .015.215.005.425.01.64-.576 0-1.156-.006-1.73 0v.653h1.52v.634H6.253c0 .224.005.449-.005.673.585.015 1.17.005 1.755.005.005.21 0 .424.005.634-.819.005-1.638 0-2.457 0 0-1.078-.005-2.16.005-3.239z"/></g><g clip-path="url(#ywwpa)"><path fill="#ff9100" d="M9.227 19.315c.36.025.756-.058 1.077.146.58.347.58 1.322 0 1.669-.326.204-.721.126-1.087.141 0-.654-.01-1.302.01-1.956zm-.726 2.595c.429.015.858.005 1.287.005.507 0 1.018-.205 1.34-.6.478-.576.468-1.502-.029-2.068-.322-.376-.824-.566-1.311-.566-.43 0-.858-.005-1.287 0 0 1.073.004 2.151 0 3.229z"/></g><g clip-path="url(#ywwpa)"><path fill="#ff9100" d="M13.454 19.29c.121-.37.497-.604.872-.643.488-.054 1.024.068 1.395.395-.098.19-.244.351-.352.537-.282-.181-.6-.352-.945-.313-.161.01-.337.132-.312.313.005.165.175.239.307.282.41.142.887.186 1.209.508.39.439.21 1.234-.337 1.458-.672.283-1.482.083-2.018-.385.146-.166.273-.347.43-.503.311.273.735.454 1.15.366.146-.03.287-.146.268-.307 0-.142-.137-.225-.249-.268-.385-.152-.824-.18-1.17-.435-.302-.219-.356-.663-.248-1.004z"/></g><g clip-path="url(#ywwpa)"><path fill="#ff9100" d="M16.008 18.681c.892-.005 1.79 0 2.681 0 0 .22 0 .434.005.654-.331.01-.658-.005-.99.01.006.858.006 1.711 0 2.57a16.867 16.867 0 0 0-.701 0c-.01-.859 0-1.717-.005-2.575h-.985c-.005-.22 0-.44-.005-.659z"/></g><g clip-path="url(#ywwpa)"><path fill="#ff9100" d="M20.537 20.554h-.858c.141-.341.283-.683.42-1.03.165.337.287.693.438 1.03zm-.75-1.897c-.459 1.087-.932 2.165-1.38 3.253h.721c.098-.244.195-.488.298-.727.453.005.911-.01 1.365.005.092.24.195.478.287.717.249.01.502.005.75.005-.457-1.083-.925-2.16-1.379-3.248-.22-.01-.443-.005-.663-.005z"/></g><g clip-path="url(#ywwpa)"><path fill="#ff9100" d="M23.681 19.33c.176.01.37.088.444.258a.49.49 0 0 1-.078.512.59.59 0 0 1-.414.152c-.244.004-.488 0-.732.004-.01-.312 0-.619-.004-.931.263 0 .521-.01.784.005zm-1.491-.649c-.005 1.078 0 2.151 0 3.229h.711v-1.034h.546l.702 1.034h.82c-.235-.395-.508-.766-.77-1.141.238-.117.472-.274.584-.522.161-.371.142-.844-.112-1.17-.224-.279-.59-.391-.936-.396H22.19z"/></g><g clip-path="url(#ywwpa)"><path fill="#ff9100" d="M2.83 21.915c.006-1.078-.009-2.16.006-3.239.234.005.473 0 .707.005v2.585c.536 0 1.072.005 1.608 0 .005.215.005.434.005.649-.78-.005-1.55 0-2.325 0z"/></g><g clip-path="url(#ywwpa)"><path fill="#ff9100" d="M21.965 23.178c.37-.19.839-.088 1.16.161l-.233.337c-.195-.122-.43-.25-.668-.176-.137.034-.17.244-.04.302.269.137.605.132.84.342.277.263.175.795-.181.936-.42.18-.926.054-1.268-.234.083-.107.171-.214.259-.317.22.161.497.303.77.215.132-.03.18-.225.063-.298-.273-.16-.624-.136-.862-.356-.254-.258-.166-.751.16-.912z"/></g><g clip-path="url(#ywwpa)"><path fill="#ff9100" d="M23.447 23.11c.507.005 1.02-.005 1.526.005 0 .131-.005.263-.005.395h-1.082v.41h.956v.395c-.317.004-.639 0-.956.004v.42h1.097v.395h-1.54c.004-.673.004-1.346.004-2.024z"/></g><g clip-path="url(#ywwpa)"><path fill="#ff9100" d="M25.71 23.515c.2.01.409-.025.609.029.229.058.244.42.034.512-.205.073-.43.024-.644.04v-.581zm-.45 1.619c.152.005.298.005.45 0v-.644c.112 0 .229 0 .346.005.136.22.287.424.424.639.175.005.35.005.526.005-.156-.244-.326-.478-.487-.717.146-.073.292-.166.36-.317a.748.748 0 0 0-.063-.742c-.141-.175-.375-.243-.595-.248-.321-.005-.638 0-.96 0v2.019z"/></g><g clip-path="url(#ywwpa)"><path fill="#ff9100" d="M26.996 23.11h.488c.18.468.346.936.526 1.405.195-.459.356-.937.532-1.4.16-.005.322-.005.487 0l-.819 2.038h-.395c-.273-.682-.55-1.36-.819-2.043z"/></g><g clip-path="url(#ywwpa)"><path fill="#ff9100" d="M29.244 23.11c.146.005.287.005.434 0 .014.673.005 1.35.01 2.029h-.444c-.005-.678-.015-1.356 0-2.03z"/></g><g clip-path="url(#ywwpa)"><path fill="#ff9100" d="M30.219 23.437c.39-.469 1.194-.488 1.594-.03-.088.098-.18.2-.268.303-.21-.21-.551-.303-.814-.142-.385.23-.39.868-.01 1.103.263.17.62.073.824-.152.107.098.2.2.292.313-.41.448-1.209.458-1.613-.01-.332-.376-.337-1-.005-1.385z"/></g><g clip-path="url(#ywwpa)"><path fill="#ff9100" d="M32.076 23.11c.512.005 1.02-.005 1.526.005-.005.131-.005.263-.005.395h-1.082v.41c.317.004.634-.005.956.004v.395c-.317.005-.634-.004-.956.005v.42h1.097v.395h-1.54c.004-.678.004-1.351.004-2.03z"/></g><g clip-path="url(#ywwpa)"><path fill="#ff9100" d="M22.185 30.45c.785-.01 1.565 0 2.35-.004-.195.634-.395 1.268-.59 1.902.785-.605 1.565-1.215 2.345-1.825.053-.034.097-.092.17-.082 1.336 0 2.667-.005 4.003.005-1.463 1.043-2.945 2.063-4.417 3.097-2.111 1.473-4.217 2.955-6.338 4.424.829-2.503 1.653-5.005 2.477-7.517z"/></g></g></g></svg>