<svg xmlns="http://www.w3.org/2000/svg" width="67" height="59" viewBox="0 0 67 59"><g><g><path fill="#ff9100" d="M63.004 32.718h-7.65a.994.994 0 0 0-.982 1.006c0 .556.44 1.006.982 1.006h5.365c.537 0 1.039.218 1.413.614.373.396.568.92.548 1.471-.037 1.068-.949 1.937-2.032 1.937h-3.462l-.066.003c-.021 0-.043-.003-.065-.003h-1.701a.994.994 0 0 0-.982 1.006c0 .556.44 1.006.982 1.006h1.7c.023 0 .045-.002.066-.003l.066.003c.708 0 1.295.59 1.308 1.315.006.345-.127.677-.374.935a1.388 1.388 0 0 1-.994.431h-19.85c-.96 0-1.908-.256-2.743-.74l-1.425-.829v-2.275a.994.994 0 0 0-.982-1.005.994.994 0 0 0-.981 1.005v2.437a.995.995 0 0 1-.982 1.005h-5.758a.73.73 0 0 1-.72-.737V21.522c0-.555.44-1.006.982-1.006h5.496c.542 0 .982.45.982 1.006v13.386c0 .556.44 1.006.981 1.006.542 0 .982-.45.982-1.006V22.661h1.081c.935 0 1.846-.271 2.634-.786l5.362-3.496c2.183-1.423 3.485-3.855 3.485-6.505V8.716c0-1.479 1.174-2.682 2.617-2.682s2.617 1.203 2.617 2.682l.008 12.27c0 .924.735 1.675 1.636 1.675h8.1c1.083 0 1.995.87 2.032 1.937a2.026 2.026 0 0 1-.548 1.471 1.926 1.926 0 0 1-1.413.615h-5.365a.994.994 0 0 0-.982 1.006c0 .556.44 1.005.982 1.005h7.72c.538 0 1.04.219 1.413.615s.568.92.549 1.471c-.037 1.068-.95 1.937-2.032 1.937zm-41.281 8.314h-4.646a.597.597 0 0 1-.589-.604V23.131c0-.333.265-.604.59-.604h4.645zm1.047 15.957c-11.473 0-20.807-9.565-20.807-21.32v-19.78c7.005-.036 12.693-5.887 12.693-13.073V2.01h16.227V3.13c0 6.603 4.801 12.077 11.014 12.95-.236.22-.49.424-.766.603l-5.361 3.496a2.884 2.884 0 0 1-1.58.472h-1.208c-.366-1.24-1.49-2.145-2.819-2.145h-5.496c-1.28 0-2.37.84-2.776 2.01h-4.814c-1.407 0-2.552 1.174-2.552 2.616v17.297c0 1.442 1.145 2.615 2.552 2.615h4.646v9.894C12.906 52.414 5.889 44.9 5.889 35.735V19.072c6.741-.503 12.113-6.141 12.398-13.105h3.436v8.85c0 .556.44 1.006.981 1.006.542 0 .982-.45.982-1.006V4.961a.994.994 0 0 0-.982-1.005h-5.387a.994.994 0 0 0-.982 1.005v.425c0 6.457-5.126 11.71-11.428 11.71a.994.994 0 0 0-.981 1.006v17.633c0 10.61 8.424 19.242 18.778 19.242.542 0 .982-.45.982-1.005v-9.02c.23.065.47.103.72.103h5.757c.962 0 1.818-.476 2.355-1.209l1.047.608a7.397 7.397 0 0 0 3.71 1.003h3.984C37.703 52.51 30.6 56.989 22.769 56.989zM65.9 27.913a3.876 3.876 0 0 0-1.852-1.105 4.068 4.068 0 0 0 .594-2.28c-.074-2.138-1.866-3.878-3.994-3.878h-7.773l-.008-11.934c0-2.588-2.054-4.693-4.58-4.693-2.526 0-4.58 2.105-4.58 4.693v3.158a5.82 5.82 0 0 1-.475 2.307c-5.763-.222-10.386-5.093-10.386-11.052V1.676C32.846.752 32.112 0 31.21 0H14.33c-.903 0-1.637.752-1.637 1.676v1.14c0 6.1-4.842 11.062-10.795 11.062h-.262C.734 13.878 0 14.63 0 15.555v20.113C0 48.534 10.214 59 22.77 59c8.906 0 16.952-5.294 20.673-13.543h13.682a3.34 3.34 0 0 0 2.396-1.034c.62-.647.952-1.493.936-2.382a3.368 3.368 0 0 0-.276-1.277h.467c2.128 0 3.92-1.74 3.994-3.877a4.065 4.065 0 0 0-.604-2.297 4.048 4.048 0 0 0 1.862-6.676z"/></g></g></svg>