<svg xmlns="http://www.w3.org/2000/svg" width="68" height="68" viewBox="0 0 68 68"><g><g><g><path fill="#ff9100" d="M34 22.24c6.5 0 11.76 5.259 11.76 11.76 0 6.5-5.26 11.76-11.76 11.76S22.24 40.5 22.24 34c0-6.501 5.26-11.76 11.76-11.76zm0 28.308c9.16 0 16.548-7.447 16.548-16.548 0-9.101-7.447-16.548-16.548-16.548-9.101 0-16.548 7.447-16.548 16.548 0 9.101 7.388 16.548 16.548 16.548z"/></g><g><path fill="#ff9100" d="M36.423 10.047V2.423A2.397 2.397 0 0 0 34 0a2.397 2.397 0 0 0-2.423 2.423v7.624A2.397 2.397 0 0 0 34 12.47a2.397 2.397 0 0 0 2.423-2.423z"/></g><g><path fill="#ff9100" d="M31.577 57.953v7.624A2.397 2.397 0 0 0 34 68a2.397 2.397 0 0 0 2.423-2.423v-7.624A2.397 2.397 0 0 0 34 55.53a2.397 2.397 0 0 0-2.423 2.423z"/></g><g><path fill="#ff9100" d="M52.575 18.852l5.378-5.378a2.426 2.426 0 0 0 0-3.427 2.426 2.426 0 0 0-3.428 0l-5.377 5.378a2.425 2.425 0 0 0 0 3.427c.472.473 1.063.71 1.713.71.65 0 1.241-.237 1.714-.71z"/></g><g><path fill="#ff9100" d="M10.047 57.953c.473.473 1.064.71 1.714.71.59 0 1.24-.237 1.714-.71l5.378-5.378a2.426 2.426 0 0 0 0-3.428 2.426 2.426 0 0 0-3.428 0l-5.378 5.378a2.426 2.426 0 0 0 0 3.428z"/></g><g><path fill="#ff9100" d="M68 34a2.397 2.397 0 0 0-2.423-2.423h-7.624A2.397 2.397 0 0 0 55.53 34a2.397 2.397 0 0 0 2.423 2.423h7.624c1.3 0 2.423-1.064 2.423-2.423z"/></g><g><path fill="#ff9100" d="M2.423 36.423h7.624A2.397 2.397 0 0 0 12.47 34a2.397 2.397 0 0 0-2.423-2.423H2.423A2.397 2.397 0 0 0 0 34c0 1.36 1.123 2.423 2.423 2.423z"/></g><g><path fill="#ff9100" d="M56.24 58.662c.59 0 1.24-.236 1.713-.709a2.426 2.426 0 0 0 0-3.428l-5.378-5.378a2.425 2.425 0 0 0-3.427 0 2.425 2.425 0 0 0 0 3.428l5.377 5.378c.473.473 1.123.71 1.714.71z"/></g><g><path fill="#ff9100" d="M18.852 18.852a2.426 2.426 0 0 0 0-3.427l-5.377-5.378a2.426 2.426 0 0 0-3.428 0 2.426 2.426 0 0 0 0 3.427l5.378 5.378c.473.473 1.064.71 1.714.71.65 0 1.24-.237 1.713-.71z"/></g></g></g></svg>