<svg xmlns="http://www.w3.org/2000/svg" width="62" height="62" viewBox="0 0 62 62"><g><g><g><path fill="#ff9100" d="M31 55.404C17.544 55.404 6.596 44.457 6.596 31S17.544 6.442 31 6.442 55.404 17.543 55.404 31c0 13.457-10.948 24.404-24.404 24.404zM31 0C13.907 0 0 13.907 0 31s13.907 31 31 31 31-13.907 31-31S48.093 0 31 0z"/></g><g><path fill="#ff9100" d="M47.18 30.119H33.164V13.265a2.568 2.568 0 0 0-5.136 0v19.422a2.568 2.568 0 0 0 2.568 2.568h16.586a2.568 2.568 0 0 0 0-5.136z"/></g></g></g></svg>